<svg id="svg" version="1.1" xmlns="http://www.w3.org/2000/svg" xmlns:xlink="http://www.w3.org/1999/xlink" width="400" height="400" viewBox="0, 0, 400,400"><g id="svgg"><path id="path0" d="M196.350 38.738 C 191.443 40.270,190.179 41.528,189.256 45.800 C 188.741 48.186,187.783 86.335,186.986 136.200 C 186.670 156.000,186.260 172.650,186.076 173.200 C 185.892 173.750,185.511 174.788,185.229 175.506 L 184.718 176.812 181.459 176.566 C 179.666 176.430,177.011 175.977,175.557 175.560 C 174.103 175.142,172.444 174.800,171.871 174.800 C 170.292 174.800,167.630 173.787,164.562 172.018 C 162.669 170.927,160.137 169.985,156.512 169.024 C 153.603 168.253,150.003 167.012,148.512 166.268 C 145.488 164.758,143.094 163.954,135.200 161.795 C 132.230 160.983,128.900 159.904,127.800 159.398 C 123.639 157.483,122.887 157.233,118.797 156.401 C 114.123 155.449,112.405 154.780,109.238 152.675 C 107.633 151.608,105.954 150.975,102.718 150.216 C 97.479 148.988,96.431 148.570,93.365 146.492 C 91.515 145.237,90.130 144.693,87.000 143.991 C 82.757 143.039,80.708 142.318,76.200 140.192 C 74.660 139.466,71.656 138.389,69.525 137.799 L 65.651 136.726 63.252 138.005 C 60.053 139.710,58.759 141.244,57.690 144.600 C 53.820 156.746,54.920 159.196,65.849 162.773 C 70.041 164.145,73.409 165.505,74.620 166.316 C 76.383 167.497,79.971 168.810,84.646 169.987 C 85.551 170.215,87.687 171.321,89.392 172.446 C 91.653 173.937,93.205 174.639,95.130 175.041 C 99.082 175.868,100.159 176.300,102.898 178.157 C 105.285 179.775,107.900 180.965,111.400 182.025 C 113.017 182.514,115.275 183.638,118.200 185.409 C 119.080 185.942,121.780 187.033,124.200 187.833 C 126.620 188.633,129.590 189.802,130.800 190.429 C 132.010 191.057,136.097 192.579,139.881 193.810 C 143.666 195.042,147.411 196.491,148.205 197.029 C 150.653 198.690,152.468 199.476,156.000 200.401 C 159.217 201.244,161.598 202.408,163.400 204.017 C 163.840 204.410,166.090 205.565,168.400 206.584 C 173.988 209.050,173.980 209.040,172.232 211.331 C 171.453 212.351,170.112 214.584,169.251 216.293 C 168.390 218.002,166.991 220.210,166.143 221.201 C 164.058 223.635,163.088 225.058,161.848 227.505 C 161.273 228.641,160.290 230.162,159.666 230.885 C 159.041 231.608,157.564 234.059,156.383 236.331 C 154.953 239.083,153.748 240.850,152.773 241.622 C 151.964 242.262,150.670 243.993,149.880 245.490 C 149.094 246.981,147.614 249.010,146.591 250.000 C 145.568 250.990,144.227 252.791,143.610 254.002 C 142.992 255.213,141.828 256.923,141.022 257.802 C 140.217 258.681,138.761 260.861,137.787 262.647 C 136.813 264.432,135.287 266.772,134.395 267.847 C 133.503 268.921,132.342 270.700,131.815 271.800 C 131.288 272.900,129.592 275.463,128.046 277.495 C 126.500 279.528,125.009 281.943,124.734 282.863 C 124.414 283.930,123.444 285.343,122.055 286.766 C 120.857 287.993,119.619 289.615,119.303 290.370 C 118.988 291.125,117.695 292.835,116.431 294.171 C 115.167 295.507,113.374 298.025,112.446 299.767 C 111.519 301.510,110.239 303.593,109.602 304.397 C 108.965 305.202,107.606 307.286,106.583 309.030 C 105.560 310.773,104.040 313.018,103.206 314.018 C 102.372 315.019,100.869 317.471,99.866 319.468 C 98.604 321.981,97.558 323.483,96.469 324.345 C 94.064 326.251,93.459 327.877,93.791 331.550 C 94.135 335.350,94.501 335.920,97.658 337.580 C 99.056 338.315,100.920 339.479,101.800 340.167 C 103.467 341.469,105.614 342.906,108.000 344.315 L 109.400 345.141 112.267 344.025 C 115.831 342.639,116.842 341.851,118.819 338.922 C 119.681 337.645,121.379 335.440,122.593 334.023 C 123.807 332.606,124.800 331.234,124.800 330.973 C 124.800 329.957,126.961 326.712,128.452 325.488 C 129.316 324.780,130.655 323.014,131.428 321.564 C 132.200 320.114,133.697 317.905,134.754 316.655 C 135.811 315.405,137.288 313.285,138.038 311.945 C 139.286 309.711,139.786 309.076,141.631 307.384 C 141.978 307.065,142.957 305.538,143.806 303.990 C 144.671 302.411,146.065 300.588,146.979 299.839 C 147.908 299.077,149.293 297.255,150.201 295.598 C 151.077 294.000,152.393 292.236,153.125 291.678 C 154.533 290.604,156.039 288.572,157.631 285.600 C 158.161 284.610,159.290 282.990,160.139 282.000 C 160.988 281.010,162.120 279.341,162.653 278.291 C 163.186 277.241,164.418 275.575,165.390 274.589 C 166.362 273.603,168.151 271.043,169.365 268.898 C 170.676 266.585,172.198 264.489,173.109 263.743 C 174.065 262.960,174.854 261.850,175.200 260.799 C 175.584 259.638,176.425 258.533,177.898 257.256 C 179.076 256.235,180.735 254.230,181.586 252.800 C 182.437 251.370,183.787 249.571,184.587 248.802 C 185.387 248.032,186.655 246.305,187.406 244.963 C 188.157 243.620,189.066 242.277,189.427 241.977 C 190.328 241.230,192.799 237.511,194.372 234.535 C 196.149 231.171,196.905 230.584,200.400 229.850 L 203.400 229.221 204.729 230.710 C 205.461 231.530,206.615 233.244,207.296 234.520 C 207.976 235.796,209.033 237.196,209.645 237.632 C 210.256 238.067,211.422 239.543,212.236 240.912 C 213.050 242.280,214.563 244.300,215.599 245.400 C 216.634 246.500,218.153 248.626,218.973 250.123 C 219.794 251.621,221.261 253.742,222.233 254.837 C 223.205 255.931,224.468 257.766,225.040 258.913 C 225.612 260.061,226.935 261.900,227.981 263.000 C 229.026 264.100,230.523 266.173,231.308 267.606 C 232.093 269.040,233.801 271.380,235.104 272.806 C 236.408 274.233,237.980 276.210,238.599 277.200 C 239.218 278.190,240.484 279.900,241.412 281.000 C 242.341 282.100,243.474 283.740,243.930 284.645 C 244.387 285.550,245.587 287.170,246.598 288.245 C 247.609 289.320,249.259 291.546,250.264 293.190 C 251.270 294.835,252.855 297.085,253.787 298.190 C 254.719 299.296,256.212 301.460,257.104 303.000 C 257.995 304.540,259.216 306.250,259.816 306.800 C 260.415 307.350,261.676 308.991,262.616 310.446 C 263.557 311.902,264.866 313.477,265.525 313.947 C 266.184 314.416,267.265 315.758,267.925 316.930 C 268.586 318.101,270.404 320.608,271.964 322.500 C 273.524 324.393,274.800 326.144,274.800 326.391 C 274.800 327.294,276.146 329.403,277.982 331.377 C 279.017 332.490,280.539 334.626,281.365 336.124 C 283.978 340.866,289.853 345.808,291.745 344.857 C 292.215 344.620,293.659 343.970,294.953 343.412 C 296.247 342.854,298.497 341.520,299.953 340.449 C 301.409 339.378,303.230 338.183,304.000 337.796 C 304.770 337.408,306.075 336.560,306.900 335.912 L 308.400 334.733 308.400 331.316 C 308.400 327.324,306.698 323.548,303.211 319.800 C 302.187 318.700,300.746 316.666,300.008 315.280 C 299.271 313.894,298.163 312.401,297.547 311.963 C 296.650 311.323,292.482 305.589,291.603 303.784 C 291.491 303.555,290.918 302.745,290.329 301.984 C 289.740 301.223,288.710 299.496,288.041 298.147 C 287.372 296.798,285.999 294.728,284.991 293.547 C 283.982 292.366,282.348 289.915,281.358 288.100 C 280.368 286.286,278.843 283.974,277.969 282.964 C 276.288 281.021,274.800 278.428,274.800 277.440 C 274.800 277.114,273.890 276.080,272.778 275.143 C 271.377 273.961,270.262 272.488,269.148 270.347 C 268.264 268.647,266.648 266.237,265.558 264.991 C 264.468 263.745,263.109 261.798,262.538 260.663 C 261.967 259.528,260.719 257.760,259.765 256.734 C 258.811 255.707,257.489 253.720,256.826 252.317 C 256.164 250.915,254.612 248.436,253.379 246.808 C 252.145 245.180,250.689 242.966,250.143 241.888 C 249.597 240.810,248.460 239.179,247.617 238.264 C 246.774 237.349,244.927 234.579,243.514 232.109 C 242.101 229.638,240.317 226.938,239.550 226.109 C 238.784 225.279,237.642 223.654,237.014 222.498 C 236.385 221.342,235.276 219.943,234.549 219.388 C 233.712 218.750,232.692 217.245,231.771 215.290 C 230.970 213.590,229.874 211.614,229.335 210.898 C 227.959 209.068,228.114 208.929,234.533 206.185 C 236.256 205.449,238.596 204.134,239.733 203.264 C 241.192 202.147,242.742 201.427,245.000 200.817 C 249.200 199.683,251.078 198.958,252.894 197.772 C 254.649 196.626,258.419 195.114,264.800 192.996 C 267.330 192.156,271.017 190.689,272.992 189.735 C 274.968 188.781,276.799 188.000,277.061 188.000 C 278.468 188.000,284.582 185.498,286.206 184.257 C 287.455 183.304,289.440 182.403,292.141 181.563 C 296.832 180.104,298.118 179.509,299.867 177.986 C 301.242 176.789,304.536 175.416,307.033 175.000 C 309.378 174.610,310.749 174.007,313.405 172.201 C 315.148 171.015,316.933 170.263,319.897 169.467 C 322.340 168.810,325.148 167.709,326.877 166.729 C 328.469 165.827,332.297 164.257,335.385 163.239 C 343.330 160.620,344.634 159.513,345.799 154.400 C 346.372 151.884,342.252 139.173,340.669 138.573 C 336.282 136.912,327.679 138.008,324.801 140.596 C 323.969 141.344,319.396 143.020,316.607 143.599 C 312.659 144.418,309.471 145.630,308.102 146.833 C 306.098 148.592,304.748 149.152,300.339 150.051 C 295.734 150.990,293.540 151.829,291.752 153.334 C 290.975 153.987,289.103 154.760,286.755 155.397 C 284.690 155.957,281.740 156.784,280.200 157.233 C 278.660 157.683,276.963 158.156,276.429 158.285 C 275.895 158.415,274.862 158.925,274.134 159.419 C 273.405 159.914,271.862 160.541,270.705 160.814 C 264.308 162.322,258.467 164.152,254.820 165.791 C 252.556 166.809,248.350 168.268,245.474 169.034 C 242.598 169.799,239.515 170.866,238.622 171.404 C 235.157 173.493,232.645 174.494,230.057 174.819 C 226.959 175.208,225.852 175.579,223.674 176.953 L 222.109 177.941 220.501 176.271 C 217.872 173.539,217.903 173.697,217.564 161.009 C 217.394 154.624,217.148 147.330,217.019 144.800 C 216.889 142.270,216.607 136.150,216.392 131.200 C 216.177 126.250,215.820 119.680,215.598 116.600 C 214.965 107.785,214.062 84.632,213.594 65.200 C 213.108 45.015,212.804 42.428,210.652 40.170 L 209.400 38.855 203.150 38.711 C 199.712 38.632,196.652 38.644,196.350 38.738 " stroke="none" fill="#f2f351" fill-rule="evenodd"></path><path id="path1" d="M0.000 200.000 L 0.000 400.000 200.000 400.000 L 400.000 400.000 400.000 200.000 L 400.000 0.000 200.000 0.000 L 0.000 0.000 0.000 200.000 M210.652 40.170 C 212.804 42.428,213.108 45.015,213.594 65.200 C 214.062 84.632,214.965 107.785,215.598 116.600 C 215.820 119.680,216.177 126.250,216.392 131.200 C 216.607 136.150,216.889 142.270,217.019 144.800 C 217.148 147.330,217.394 154.624,217.564 161.009 C 217.903 173.697,217.872 173.539,220.501 176.271 L 222.109 177.941 223.674 176.953 C 225.852 175.579,226.959 175.208,230.057 174.819 C 232.645 174.494,235.157 173.493,238.622 171.404 C 239.515 170.866,242.598 169.799,245.474 169.034 C 248.350 168.268,252.556 166.809,254.820 165.791 C 258.467 164.152,264.308 162.322,270.705 160.814 C 271.862 160.541,273.405 159.914,274.134 159.419 C 274.862 158.925,275.895 158.415,276.429 158.285 C 276.963 158.156,278.660 157.683,280.200 157.233 C 281.740 156.784,284.690 155.957,286.755 155.397 C 289.103 154.760,290.975 153.987,291.752 153.334 C 293.540 151.829,295.734 150.990,300.339 150.051 C 304.748 149.152,306.098 148.592,308.102 146.833 C 309.471 145.630,312.659 144.418,316.607 143.599 C 319.396 143.020,323.969 141.344,324.801 140.596 C 327.679 138.008,336.282 136.912,340.669 138.573 C 342.252 139.173,346.372 151.884,345.799 154.400 C 344.634 159.513,343.330 160.620,335.385 163.239 C 332.297 164.257,328.469 165.827,326.877 166.729 C 325.148 167.709,322.340 168.810,319.897 169.467 C 316.933 170.263,315.148 171.015,313.405 172.201 C 310.749 174.007,309.378 174.610,307.033 175.000 C 304.536 175.416,301.242 176.789,299.867 177.986 C 298.118 179.509,296.832 180.104,292.141 181.563 C 289.440 182.403,287.455 183.304,286.206 184.257 C 284.582 185.498,278.468 188.000,277.061 188.000 C 276.799 188.000,274.968 188.781,272.992 189.735 C 271.017 190.689,267.330 192.156,264.800 192.996 C 258.419 195.114,254.649 196.626,252.894 197.772 C 251.078 198.958,249.200 199.683,245.000 200.817 C 242.742 201.427,241.192 202.147,239.733 203.264 C 238.596 204.134,236.256 205.449,234.533 206.185 C 228.114 208.929,227.959 209.068,229.335 210.898 C 229.874 211.614,230.970 213.590,231.771 215.290 C 232.692 217.245,233.712 218.750,234.549 219.388 C 235.276 219.943,236.385 221.342,237.014 222.498 C 237.642 223.654,238.784 225.279,239.550 226.109 C 240.317 226.938,242.101 229.638,243.514 232.109 C 244.927 234.579,246.774 237.349,247.617 238.264 C 248.460 239.179,249.597 240.810,250.143 241.888 C 250.689 242.966,252.145 245.180,253.379 246.808 C 254.612 248.436,256.164 250.915,256.826 252.317 C 257.489 253.720,258.811 255.707,259.765 256.734 C 260.719 257.760,261.967 259.528,262.538 260.663 C 263.109 261.798,264.468 263.745,265.558 264.991 C 266.648 266.237,268.264 268.647,269.148 270.347 C 270.262 272.488,271.377 273.961,272.778 275.143 C 273.890 276.080,274.800 277.114,274.800 277.440 C 274.800 278.428,276.288 281.021,277.969 282.964 C 278.843 283.974,280.368 286.286,281.358 288.100 C 282.348 289.915,283.982 292.366,284.991 293.547 C 285.999 294.728,287.372 296.798,288.041 298.147 C 288.710 299.496,289.740 301.223,290.329 301.984 C 290.918 302.745,291.491 303.555,291.603 303.784 C 292.482 305.589,296.650 311.323,297.547 311.963 C 298.163 312.401,299.271 313.894,300.008 315.280 C 300.746 316.666,302.187 318.700,303.211 319.800 C 306.698 323.548,308.400 327.324,308.400 331.316 L 308.400 334.733 306.900 335.912 C 306.075 336.560,304.770 337.408,304.000 337.796 C 303.230 338.183,301.409 339.378,299.953 340.449 C 298.497 341.520,296.247 342.854,294.953 343.412 C 293.659 343.970,292.215 344.620,291.745 344.857 C 289.853 345.808,283.978 340.866,281.365 336.124 C 280.539 334.626,279.017 332.490,277.982 331.377 C 276.146 329.403,274.800 327.294,274.800 326.391 C 274.800 326.144,273.524 324.393,271.964 322.500 C 270.404 320.608,268.586 318.101,267.925 316.930 C 267.265 315.758,266.184 314.416,265.525 313.947 C 264.866 313.477,263.557 311.902,262.616 310.446 C 261.676 308.991,260.415 307.350,259.816 306.800 C 259.216 306.250,257.995 304.540,257.104 303.000 C 256.212 301.460,254.719 299.296,253.787 298.190 C 252.855 297.085,251.270 294.835,250.264 293.190 C 249.259 291.546,247.609 289.320,246.598 288.245 C 245.587 287.170,244.387 285.550,243.930 284.645 C 243.474 283.740,242.341 282.100,241.412 281.000 C 240.484 279.900,239.218 278.190,238.599 277.200 C 237.980 276.210,236.408 274.233,235.104 272.806 C 233.801 271.380,232.093 269.040,231.308 267.606 C 230.523 266.173,229.026 264.100,227.981 263.000 C 226.935 261.900,225.612 260.061,225.040 258.913 C 224.468 257.766,223.205 255.931,222.233 254.837 C 221.261 253.742,219.794 251.621,218.973 250.123 C 218.153 248.626,216.634 246.500,215.599 245.400 C 214.563 244.300,213.050 242.280,212.236 240.912 C 211.422 239.543,210.256 238.067,209.645 237.632 C 209.033 237.196,207.976 235.796,207.296 234.520 C 206.615 233.244,205.461 231.530,204.729 230.710 L 203.400 229.221 200.400 229.850 C 196.905 230.584,196.149 231.171,194.372 234.535 C 192.799 237.511,190.328 241.230,189.427 241.977 C 189.066 242.277,188.157 243.620,187.406 244.963 C 186.655 246.305,185.387 248.032,184.587 248.802 C 183.787 249.571,182.437 251.370,181.586 252.800 C 180.735 254.230,179.076 256.235,177.898 257.256 C 176.425 258.533,175.584 259.638,175.200 260.799 C 174.854 261.850,174.065 262.960,173.109 263.743 C 172.198 264.489,170.676 266.585,169.365 268.898 C 168.151 271.043,166.362 273.603,165.390 274.589 C 164.418 275.575,163.186 277.241,162.653 278.291 C 162.120 279.341,160.988 281.010,160.139 282.000 C 159.290 282.990,158.161 284.610,157.631 285.600 C 156.039 288.572,154.533 290.604,153.125 291.678 C 152.393 292.236,151.077 294.000,150.201 295.598 C 149.293 297.255,147.908 299.077,146.979 299.839 C 146.065 300.588,144.671 302.411,143.806 303.990 C 142.957 305.538,141.978 307.065,141.631 307.384 C 139.786 309.076,139.286 309.711,138.038 311.945 C 137.288 313.285,135.811 315.405,134.754 316.655 C 133.697 317.905,132.200 320.114,131.428 321.564 C 130.655 323.014,129.316 324.780,128.452 325.488 C 126.961 326.712,124.800 329.957,124.800 330.973 C 124.800 331.234,123.807 332.606,122.593 334.023 C 121.379 335.440,119.681 337.645,118.819 338.922 C 116.842 341.851,115.831 342.639,112.267 344.025 L 109.400 345.141 108.000 344.315 C 105.614 342.906,103.467 341.469,101.800 340.167 C 100.920 339.479,99.056 338.315,97.658 337.580 C 92.599 334.921,91.969 327.910,96.469 324.345 C 97.558 323.483,98.604 321.981,99.866 319.468 C 100.869 317.471,102.372 315.019,103.206 314.018 C 104.040 313.018,105.560 310.773,106.583 309.030 C 107.606 307.286,108.965 305.202,109.602 304.397 C 110.239 303.593,111.519 301.510,112.446 299.767 C 113.374 298.025,115.167 295.507,116.431 294.171 C 117.695 292.835,118.988 291.125,119.303 290.370 C 119.619 289.615,120.857 287.993,122.055 286.766 C 123.444 285.343,124.414 283.930,124.734 282.863 C 125.009 281.943,126.500 279.528,128.046 277.495 C 129.592 275.463,131.288 272.900,131.815 271.800 C 132.342 270.700,133.503 268.921,134.395 267.847 C 135.287 266.772,136.813 264.432,137.787 262.647 C 138.761 260.861,140.217 258.681,141.022 257.802 C 141.828 256.923,142.992 255.213,143.610 254.002 C 144.227 252.791,145.568 250.990,146.591 250.000 C 147.614 249.010,149.094 246.981,149.880 245.490 C 150.670 243.993,151.964 242.262,152.773 241.622 C 153.748 240.850,154.953 239.083,156.383 236.331 C 157.564 234.059,159.041 231.608,159.666 230.885 C 160.290 230.162,161.273 228.641,161.848 227.505 C 163.088 225.058,164.058 223.635,166.143 221.201 C 166.991 220.210,168.390 218.002,169.251 216.293 C 170.112 214.584,171.453 212.351,172.232 211.331 C 173.980 209.040,173.988 209.050,168.400 206.584 C 166.090 205.565,163.840 204.410,163.400 204.017 C 161.598 202.408,159.217 201.244,156.000 200.401 C 152.468 199.476,150.653 198.690,148.205 197.029 C 147.411 196.491,143.666 195.042,139.881 193.810 C 136.097 192.579,132.010 191.057,130.800 190.429 C 129.590 189.802,126.620 188.633,124.200 187.833 C 121.780 187.033,119.080 185.942,118.200 185.409 C 115.275 183.638,113.017 182.514,111.400 182.025 C 107.900 180.965,105.285 179.775,102.898 178.157 C 100.159 176.300,99.082 175.868,95.130 175.041 C 93.205 174.639,91.653 173.937,89.392 172.446 C 87.687 171.321,85.551 170.215,84.646 169.987 C 79.971 168.810,76.383 167.497,74.620 166.316 C 73.409 165.505,70.041 164.145,65.849 162.773 C 54.920 159.196,53.820 156.746,57.690 144.600 C 58.759 141.244,60.053 139.710,63.252 138.005 L 65.651 136.726 69.525 137.799 C 71.656 138.389,74.660 139.466,76.200 140.192 C 80.708 142.318,82.757 143.039,87.000 143.991 C 90.130 144.693,91.515 145.237,93.365 146.492 C 96.431 148.570,97.479 148.988,102.718 150.216 C 105.954 150.975,107.633 151.608,109.238 152.675 C 112.405 154.780,114.123 155.449,118.797 156.401 C 122.887 157.233,123.639 157.483,127.800 159.398 C 128.900 159.904,132.230 160.983,135.200 161.795 C 143.094 163.954,145.488 164.758,148.512 166.268 C 150.003 167.012,153.603 168.253,156.512 169.024 C 160.137 169.985,162.669 170.927,164.562 172.018 C 167.630 173.787,170.292 174.800,171.871 174.800 C 172.444 174.800,174.103 175.142,175.557 175.560 C 177.011 175.977,179.666 176.430,181.459 176.566 L 184.718 176.812 185.229 175.506 C 185.511 174.788,185.892 173.750,186.076 173.200 C 186.260 172.650,186.670 156.000,186.986 136.200 C 187.783 86.335,188.741 48.186,189.256 45.800 C 190.179 41.528,191.443 40.270,196.350 38.738 C 196.652 38.644,199.712 38.632,203.150 38.711 L 209.400 38.855 210.652 40.170 " stroke="none" fill="#0b0b24" fill-rule="evenodd"></path></g></svg>